<?xml version="1.0" encoding="utf-8"?>
<!-- Generator: Adobe Illustrator 16.0.0, SVG Export Plug-In . SVG Version: 6.00 Build 0)  -->
<!DOCTYPE svg PUBLIC "-//W3C//DTD SVG 1.1//EN" "http://www.w3.org/Graphics/SVG/1.1/DTD/svg11.dtd">
<svg version="1.1" id="Layer_1" xmlns="http://www.w3.org/2000/svg" xmlns:xlink="http://www.w3.org/1999/xlink" x="0px" y="0px"
	 width="558px" height="595.28px" viewBox="0 0 558 595.28" enable-background="new 0 0 558 595.28" xml:space="preserve">
<g>
	<path fill-rule="evenodd" clip-rule="evenodd" fill="#C1C1C1" d="M395.913,38.314c2.866,0.516,5.733,1.025,8.599,1.547
		c18.497,3.366,28.981,15.097,33.753,32.606c2.145,7.874,3.789,15.865,2.855,24.129c-1.248,11.072-7.027,19.219-16.352,24.964
		c-9.836,6.061-20.829,8.522-32.118,9.955c-2.969,0.377-5.946,0.679-9.17,1.787c1.946,1.237,3.895,2.472,5.839,3.712
		c6.951,4.439,13.901,8.881,20.852,13.323c0.183,0.117,0.366,0.239,0.527,0.383c2.971,2.634,6.164,5.386,5.048,9.847
		c-1.173,4.688-5.374,5.985-9.51,6.78c-8.631,1.659-16.912-0.023-24.81-3.455c-9.979-4.336-19.675-9.252-28.174-16.181
		c-1.756-1.432-3.376-3.086-4.813-4.839c-4.789-5.841-4.827-12.514-0.218-18.523c4.638-6.045,11.021-9.624,18.142-11.495
		c10.386-2.728,20.954-4.758,31.426-7.167c2.955-0.679,5.881-1.534,8.758-2.495c3.425-1.145,5.229-3.729,5.767-7.239
		c1.363-8.902-0.571-17.085-5.678-24.444c-3.679-5.303-7.981-6.81-14.191-4.838c-4.647,1.475-9.103,3.544-13.692,5.213
		c-2.747,0.999-5.546,1.934-8.396,2.547c-4.784,1.029-9.145,0.066-12.377-3.879c-3.372-4.115-4.246-8.826-2.17-13.755
		c3.261-7.742,9.723-12.102,17.17-15.053c3.804-1.507,7.888-2.31,11.844-3.432C388.52,38.314,392.216,38.314,395.913,38.314z
		 M394.893,41.163c-12.284-0.458-21.31,1.727-29.225,7.626c-3.53,2.631-6.532,5.754-7.827,10.141
		c-2.202,7.464,3.778,14.421,11.389,12.984c3.488-0.659,6.876-1.943,10.241-3.136c3.987-1.413,7.829-3.267,11.862-4.516
		c8.098-2.509,13.841-0.244,18.354,6.977c4.346,6.95,6.093,14.573,5.584,22.719c-0.392,6.274-3.202,10.723-9.59,12.388
		c-1.995,0.52-3.958,1.175-5.971,1.607c-9.34,2.003-18.743,3.734-28.021,5.983c-7.212,1.748-14.115,4.436-19.512,9.902
		c-6.336,6.418-6.625,13.331,0.094,19.308c11.854,10.548,25.564,17.96,41.1,21.548c5.201,1.201,10.603,1.17,15.729-0.923
		c4.719-1.927,5.481-5.024,2.184-8.798c-0.782-0.894-1.646-1.762-2.616-2.438c-4.004-2.795-7.995-5.621-12.121-8.23
		c-4.681-2.96-9.574-5.586-14.204-8.618c-1.162-0.761-1.672-2.521-2.48-3.821c1.373-0.695,2.727-1.437,4.132-2.058
		c0.469-0.207,1.074-0.099,1.614-0.148c11.187-1.032,22.197-2.777,32.543-7.504c13.945-6.374,21.27-17.274,20.575-31.386
		c-0.446-9.061-2.356-17.86-6.1-26.191c-4.989-11.102-13.223-18.469-25.147-21.276C402.531,42.136,397.439,41.584,394.893,41.163z"
		/>
	<path fill-rule="evenodd" clip-rule="evenodd" fill="#C1C1C1" d="M27.299,265.354c6.208-15.392,16.997-26.827,30.93-35.44
		c4.003-2.475,8.442-4.014,13.304-3.73c4.63,0.271,6.921,2.665,7.826,7.187c5.454,27.25,10.979,54.487,16.61,81.701
		c1.014,4.9,3.051,6.005,8.01,5.281c1.934-0.283,3.849-0.74,5.791-0.911c6.081-0.535,9.487,3.549,7.748,9.413
		c-0.512,1.729-1.301,3.618-2.544,4.846c-13.384,13.22-28.835,21.908-48.336,20.893c-2.708-0.141-5.55-1.226-7.977-2.53
		c-5.119-2.752-5.935-7.889-1.672-11.799c2.992-2.744,6.509-5.226,10.227-6.793c4.893-2.063,6.678-5.384,5.898-10.202
		c-1.924-11.883-3.949-23.752-6.162-35.583c-1.237-6.613-2.904-13.148-4.44-19.703c-0.364-1.555-0.978-3.051-1.668-5.16
		c-1.534,1.143-2.724,1.959-3.835,2.87c-3.773,3.092-7.298,6.545-11.33,9.246c-4.95,3.314-10.176,2.697-14.876-0.861
		c-1.409-1.067-2.349-2.754-3.503-4.156C27.299,268.399,27.299,266.877,27.299,265.354z M70.981,352.724
		c16.27-2.12,29.902-8.66,41.25-19.856c1.388-1.37,2.315-3.448,2.868-5.368c0.955-3.314-1.011-5.599-4.437-5.416
		c-1.942,0.104-3.869,0.526-5.8,0.823c-7.058,1.082-10.062-0.859-11.672-7.896c-2.545-11.114-5.136-22.223-7.377-33.4
		c-3.16-15.753-6.052-31.56-8.983-47.358c-0.746-4.019-2.632-6.252-6.587-5.382c-4.67,1.027-9.435,2.676-13.513,5.129
		c-8.777,5.282-15.444,12.96-21.273,21.297c-1.787,2.556-3.353,5.367-4.465,8.272c-2.459,6.423,2.164,11.859,9.039,10.655
		c2.064-0.361,4.214-1.285,5.901-2.526c3.049-2.243,5.65-5.095,8.689-7.354c2.062-1.532,4.739-3.643,6.791-3.314
		c1.501,0.242,2.943,3.903,3.53,6.259c2.546,10.219,5.084,20.459,7.013,30.806c1.687,9.045,2.713,18.225,3.722,27.38
		c0.502,4.554-1.61,7.763-6.061,9.668c-3.26,1.396-6.358,3.346-9.215,5.47c-5.036,3.743-4.486,7.873,1.403,10.099
		C64.792,351.842,68.102,352.12,70.981,352.724z"/>
	<path fill-rule="evenodd" clip-rule="evenodd" fill="#C1C1C1" d="M527.701,213.814c-5.76,7.574-12.906,13.642-20.545,19.232
		c-4,2.928-4.594,6.034-1.688,10.143c2.742,3.877,6.147,7.284,9.237,10.917c3.3,3.882,6.801,7.622,9.788,11.733
		c2.564,3.53,2.232,5.477-1.198,8.062c-4.317,3.253-8.763,6.42-13.479,9.034c-4.073,2.257-5.534,1.346-8.596-2.159
		c-5.563-6.369-11.362-12.532-17.079-18.766c-1.983-2.163-4.464-2.474-6.786-0.953c-4.07,2.664-8.062,5.482-11.851,8.528
		c-3.55,2.854-6.697,6.203-10.197,9.125c-4.21,3.516-6.653,3.034-10.187-1.072c-3.174-3.689-6.566-7.206-10.048-10.61
		c-3.233-3.162-3.664-6.107-0.366-9.245c3.453-3.284,7.372-6.071,10.974-9.206c2.701-2.351,5.321-4.813,7.797-7.397
		c3.357-3.505,3.592-5.977,0.429-9.738c-2.924-3.477-6.296-6.585-9.553-9.772c-7.684-7.521-7.7-9.865,0.162-17.035
		c3.612-3.294,7.245-6.57,10.979-9.724c3.058-2.583,5.266-2.542,7.899,0.495c2.405,2.775,4.29,5.994,6.517,8.933
		c2.288,3.02,4.439,6.218,7.141,8.833c4.056,3.925,7.968,3.925,12.128,0.12c2.867-2.623,5.316-5.714,7.867-8.668
		c1.846-2.136,3.501-4.435,5.333-6.583c3-3.514,4.538-3.871,8.787-1.807c6.773,3.29,12.286,8.087,16.534,14.319
		C527.701,211.639,527.701,212.727,527.701,213.814z M505.915,281.6c1.423-0.501,2.526-0.708,3.438-1.245
		c2.709-1.594,5.551-3.063,7.966-5.038c6.859-5.61,8.639-4.079,1.456-12.8c-4.066-4.938-8.808-9.317-12.949-14.198
		c-6.463-7.618-6.683-13.224,2.472-19.67c5.529-3.894,10.136-9.109,15.089-13.801c1.903-1.803,1.883-3.871-0.009-5.684
		c-2.656-2.546-5.241-5.225-8.188-7.398c-7.756-5.723-8.154-5.478-14.198,2.04c-3.389,4.215-6.881,8.443-10.889,12.039
		c-4.569,4.099-9.529,3.959-14.115-0.155c-2.95-2.646-5.329-5.963-7.772-9.127c-2.187-2.831-4.067-5.896-6.166-8.797
		c-1.58-2.184-3.294-2.428-5.403-0.424c-3.307,3.14-6.803,6.081-10.209,9.118c-6.735,6.007-6.728,6.924-0.296,13.278
		c3.472,3.43,7.125,6.732,10.186,10.507c3.502,4.321,3.284,8.326-0.581,12.278c-4.013,4.103-8.455,7.787-12.746,11.613
		c-2.186,1.949-4.515,3.74-6.661,5.73c-1.653,1.533-1.499,3.137,0.104,4.784c3.853,3.958,7.696,7.931,11.386,12.04
		c1.756,1.957,3.355,2.167,5.264,0.459c3.156-2.826,6.203-5.783,9.473-8.468c3.935-3.23,7.85-6.563,12.147-9.249
		c4.928-3.079,7.983-2.725,11.966,1.354c5.752,5.893,11.107,12.175,16.65,18.274C504.153,279.97,505.081,280.787,505.915,281.6z"/>
	<path fill-rule="evenodd" clip-rule="evenodd" fill="#C1C1C1" d="M259.683,333.258c-3.791-0.855-7.64-1.515-11.357-2.618
		c-4.748-1.409-8.655-4.052-10.538-8.934c-1.873-4.855-1.145-9.635,3.147-12.563c4.318-2.944,9.17-5.452,14.145-7.021
		c14.357-4.529,29.283-6.331,44.238-7.169c9.378-0.525,18.848-0.013,28.241,0.582c5.204,0.329,10.208,2.151,14.366,5.586
		c7.637,6.308,7.183,15.657-1.756,19.652c-7.433,3.323-15.534,5.613-23.573,7.011c-12.703,2.208-25.604,3.28-38.419,4.854
		c-0.956,0.117-1.891,0.409-2.836,0.619C270.122,333.258,264.902,333.258,259.683,333.258z M310.741,296.154
		c-15.949,0.854-41.559,4.162-54.495,8.334c-4.772,1.539-9.414,3.925-13.605,6.694c-3.704,2.449-4.036,6.478-1.986,10.482
		c1.752,3.424,4.771,5.269,8.26,6.443c7.34,2.471,14.97,2.915,22.56,2.259c13.522-1.17,27.038-2.555,40.49-4.346
		c9.458-1.26,18.926-2.979,27.467-7.658c6.147-3.367,7.066-9.455,1.813-14.133c-2.502-2.228-5.777-4.179-9.001-4.878
		C325.177,297.82,317.92,297.167,310.741,296.154z"/>
	<path fill-rule="evenodd" clip-rule="evenodd" fill="#C1C1C1" d="M254.712,286.09c-3.791-0.855-7.64-1.515-11.357-2.618
		c-4.748-1.409-8.655-4.052-10.538-8.934c-1.873-4.855-1.145-9.635,3.147-12.563c4.318-2.944,9.17-5.452,14.145-7.021
		c14.357-4.529,29.282-6.331,44.237-7.169c9.379-0.525,18.848-0.013,28.242,0.582c5.203,0.329,10.207,2.151,14.365,5.586
		c7.637,6.308,7.184,15.657-1.756,19.652c-7.432,3.323-15.533,5.613-23.572,7.011c-12.703,2.208-25.605,3.28-38.419,4.854
		c-0.956,0.117-1.891,0.409-2.836,0.619C265.151,286.09,259.932,286.09,254.712,286.09z M305.771,248.986
		c-15.949,0.854-41.559,4.162-54.495,8.334c-4.772,1.539-9.414,3.925-13.605,6.694c-3.704,2.449-4.036,6.478-1.986,10.482
		c1.752,3.424,4.771,5.269,8.26,6.443c7.34,2.471,14.97,2.915,22.56,2.259c13.523-1.17,27.039-2.555,40.49-4.346
		c9.459-1.26,18.926-2.979,27.467-7.658c6.148-3.367,7.066-9.455,1.814-14.133c-2.502-2.228-5.777-4.179-9.002-4.878
		C320.206,250.652,312.95,249.999,305.771,248.986z"/>
	<path fill-rule="evenodd" clip-rule="evenodd" fill="#C1C1C1" d="M455.336,499.703c-17.29-0.879-34.174-3.527-49.42-12.407
		c-7.236-4.216-13.113-9.777-14.61-18.577c-0.867-5.097-0.004-9.953,4.142-13.354c4.11-3.369,9.18-3.865,13.822-1.523
		c4.305,2.171,8.276,5.122,12.082,8.127c5.445,4.301,10.377,9.277,17.58,10.732c10.291,2.078,19.782,1.052,27.332-7.064
		c8.122-8.729,7.313-19.477-1.82-27.139c-4.729-3.967-10.277-5.979-16.292-6.887c-1.289-0.195-2.584-0.373-3.882-0.48
		c-5.028-0.416-9.215-2.223-10.73-7.457c-1.55-5.356-0.139-10.163,3.931-13.974c4.019-3.762,9.162-4.712,13.548-1.832
		c13.444,8.826,35.094-2.48,41.688-15.269c6.681-12.96-0.951-25.723-15.952-26.042c-6.692-0.143-13.403,1.083-20.12,1.448
		c-5.828,0.316-11.698,0.659-17.509,0.314c-5.034-0.299-8.711-3.252-10.344-8.188c-1.704-5.155-1.411-10.105,2.319-14.398
		c4.563-5.25,10.8-7.253,17.329-8.119c20.221-2.682,39.102,0.844,56.132,12.638c14.887,10.31,24.92,43.838,5.006,62.53
		c-3.343,3.138-7.621,5.295-11.539,7.795c-1.455,0.929-3.146,1.476-4.67,2.308c-4.045,2.212-4.59,3.49-2.263,7.514
		c3.886,6.718,7.449,13.468,8.207,21.398c0.852,8.904,0.377,17.615-3.354,25.869c-6.489,14.352-18.563,20.271-33.444,21.803
		c-1.511,0.156-3.038,0.175-4.559,0.229C457.076,499.729,456.206,499.703,455.336,499.703z M459.703,339.137
		c-2.577,0.185-5.631,0.256-8.642,0.65c-5.532,0.726-10.901,2.049-15.543,5.382c-4.304,3.09-5.918,7.466-4.684,12.578
		c1.205,4.989,4.049,7.777,9.649,8.151c4.945,0.332,9.973,0.067,14.92-0.4c8.856-0.839,17.669-2.673,26.598-0.969
		c11.159,2.131,17.646,12.671,15.179,23.74c-3.565,15.997-29.656,32.037-46.21,22.504c-2.334-1.344-5.965-1.482-8.693-0.858
		c-4.431,1.013-7.292,6.698-6.644,11.459c0.573,4.206,3.498,6.653,8.779,7.155c6.898,0.655,13.506,2.152,19.361,6.102
		c9.501,6.409,13.238,17.309,8.889,26.275c-2.642,5.442-6.542,9.878-12.131,12.282c-12.677,5.456-24.568,3.855-35.473-4.694
		c-4.863-3.813-9.559-7.886-14.687-11.309c-4.148-2.769-9.047-3.154-13.114,0.165c-4.205,3.431-4.271,8.339-2.844,13.192
		c1.643,5.587,5.38,9.775,10.201,12.694c19.604,11.868,40.928,15.971,63.496,12.615c11.816-1.758,20.904-8.247,25.469-19.528
		c5.552-13.72,5.104-27.402-2.499-40.426c-6.131-10.504-5.579-12.127,5.2-17.473c4.037-2.003,8.128-4.391,11.332-7.493
		c15.524-15.032,13.459-44.183-4.068-58.025C490.885,342.906,475.856,339.88,459.703,339.137z"/>
	<path fill-rule="evenodd" clip-rule="evenodd" fill="#C1C1C1" d="M98.89,93.933c4.778,0,9.561,0.13,14.333-0.032
		c6.067-0.207,9.375-2.949,10.169-8.907c0.541-4.06,0.396-8.228,0.36-12.346c-0.056-6.387,0.62-12.601,3.838-18.268
		c5.226-9.201,19.005-12.22,27.672-6.099c3.429,2.421,4.796,5.984,4.575,9.929c-0.37,6.604-1.26,13.178-1.747,19.778
		c-0.222,3.014-0.323,6.103,0.075,9.084c1.026,7.702,5.047,11.147,12.89,11.459c5.091,0.203,10.243-0.061,15.261,0.644
		c6.522,0.916,12.2,3.89,16.233,9.357c6.917,9.376,2.795,21.092-8.579,23.44c-6.135,1.266-12.493,1.473-18.759,2.069
		c-5.623,0.535-11.258,0.942-16.886,1.419c-3.291,0.278-5.437,1.761-6.003,5.274c-1.158,7.179-2.416,14.342-3.724,21.494
		c-0.33,1.804-0.892,3.587-1.542,5.306c-3.032,8.009-8.116,11.752-15.78,11.728c-8.835-0.029-14.917-4.08-17.84-12.057
		c-2.93-7.997-2.36-16.29-1.579-24.514c0.888-9.349-0.482-11.127-9.918-11.708c-7.261-0.447-14.573-0.553-21.768-1.517
		c-15.609-2.09-19.416-14.477-16.406-26.953c0.905-3.752,3.987-5.568,7.371-6.749c8.61-3.003,17.551-2.543,26.457-2.357
		c0.435,0.009,0.868,0.059,1.301,0.089C98.891,93.643,98.891,93.788,98.89,93.933z M96.837,96.504
		c-0.021-0.382-0.042-0.764-0.063-1.146c-7.328,0.67-14.73,0.902-21.962,2.135c-7.155,1.22-9.022,4.008-9.354,11.138
		c-0.466,10,4.224,16.169,14.021,18.061c3.505,0.677,7.105,0.907,10.674,1.191c5.844,0.466,11.728,0.557,17.535,1.283
		c4.601,0.576,6.8,3.402,6.928,8.042c0.069,2.487-0.205,4.987-0.365,7.478c-0.474,7.389-0.96,14.794,1.753,21.908
		c2.516,6.597,7.861,10.076,15.224,10.109c6.336,0.029,10.476-2.969,13.181-9.701c0.725-1.805,1.342-3.692,1.694-5.599
		c1.318-7.149,2.506-14.322,3.744-21.486c0.757-4.381,3.465-6.58,7.795-6.964c4.868-0.433,9.742-0.814,14.603-1.314
		c7.334-0.755,14.79-0.997,21.958-2.548c8.749-1.895,11.708-10.939,6.651-18.405c-3.013-4.448-7.339-7.312-12.446-8.31
		c-4.735-0.925-9.684-1.189-14.522-1.077c-12.364,0.288-18.501-5.318-18.632-17.656c-0.028-2.598,0.219-5.205,0.443-7.799
		c0.505-5.837,1.234-11.66,1.56-17.506c0.197-3.546-1.19-6.588-4.442-8.506c-7.885-4.649-18.932-1.648-23.227,6.379
		c-2.58,4.822-3.282,10.073-3.267,15.461c0.011,4.02,0.255,8.057-0.034,12.056c-0.573,7.954-4.648,12.189-12.521,12.706
		C108.146,96.801,102.482,96.504,96.837,96.504z"/>
	<path fill-rule="evenodd" clip-rule="evenodd" fill="#C1C1C1" d="M241.548,515.167c-8.158-2.133-16.464-3.823-24.444-6.488
		c-16.394-5.475-32.457-11.832-47.01-21.395c-5.292-3.479-10.346-7.361-13.305-13.131c-1.194-2.33-1.973-5.12-2.052-7.727
		c-0.205-6.687,3.561-10.835,10.265-10.824c4.938,0.007,10.041,0.565,14.783,1.899c21.072,5.923,41.33,13.987,60.486,24.631
		c3.573,1.985,7,4.48,9.908,7.337c2.486,2.44,4.805,5.482,6.018,8.703c3.031,8.054-1.636,14.968-10.178,15.883
		c-1.402,0.149-2.818,0.168-4.229,0.248C241.71,514.591,241.629,514.879,241.548,515.167z M241.647,512.286
		c0.051-0.225,0.102-0.45,0.151-0.677c0.651,0,1.305,0.02,1.956-0.003c3.951-0.139,7.63-0.884,9.61-4.861
		c2.021-4.058,1.333-8.058-1.446-11.283c-2.803-3.252-5.889-6.556-9.509-8.753c-20.849-12.652-43.36-21.442-66.937-27.468
		c-3.898-0.997-8.156-0.813-12.243-0.761c-2.743,0.034-4.448,1.947-5.371,4.54c-1.645,4.623-0.411,8.903,2.719,12.089
		c4.223,4.297,8.775,8.498,13.85,11.684c15.087,9.476,31.679,15.741,48.595,21.069C229.095,509.775,235.433,510.837,241.647,512.286
		z"/>
	<path fill-rule="evenodd" clip-rule="evenodd" fill="#C1C1C1" d="M217.815,432.313c7.492,0.047,15.541,6.22,17.498,13.421
		c2.322,8.54-5.889,18.57-15.536,18.228c-4.202-0.149-8.703-1.285-12.446-3.192c-9.309-4.744-10.417-16.456-2.626-23.483
		C208.415,433.938,212.847,432.394,217.815,432.313z M218.915,462.182c0.095-0.236,0.189-0.474,0.284-0.71
		c0.972-0.069,1.954-0.074,2.915-0.218c6.565-0.979,12.566-9.102,10.606-14.758c-1.999-5.769-6.03-9.892-12.089-11.21
		c-6.084-1.324-11.391,0.748-15.484,5.412c-4.816,5.49-3.854,13.426,2.424,17.132C211.011,459.86,215.112,460.768,218.915,462.182z"
		/>
	<path fill-rule="evenodd" clip-rule="evenodd" fill="#C1C1C1" d="M170.782,515.321c-0.803-9.364,10.897-15.821,18.582-13.512
		c7.843,2.357,13.304,7.605,15.299,15.52c2.518,9.981-6.303,18.649-17.092,17.339C177.167,533.403,170.716,525.97,170.782,515.321z
		 M185.812,504.043c-5.032,0.045-11.191,3.847-12.021,7.924c-1.293,6.359,0.179,12.11,5.21,16.513
		c4.573,4.001,11.831,4.823,17.088,2.038c4.291-2.272,6.63-5.825,6.369-10.81C202.075,512.375,193.123,503.978,185.812,504.043z"/>
</g>
</svg>
